<svg id="Layer_1" data-name="Layer 1" xmlns="http://www.w3.org/2000/svg" viewBox="0 0 744.17 935.59"><defs><style>.cls-1{fill:#f26627;}.cls-2{fill:#445daa;}.cls-3{fill:#fddc63;}</style></defs><title>02D_AFewclouds</title><path class="cls-1" d="M501.69,333.32a69.12,69.12,0,0,1,123.43,42.82c0,1.54-.14,3.08-.23,4.58a192.34,192.34,0,0,1,45.27,30.6A119.48,119.48,0,0,0,451.61,318a243.31,243.31,0,0,1,50.08,15.36Z" transform="translate(-75.92 152.74)"/><path class="cls-2" d="M683.42,732.52H212.22c-46.64,0-86-41.14-86-89.85,0-48.48,39-89.49,85.37-89.89.85.07,1.7.14,2.59.14l21.91.22,3.28-21.65C251.6,450.13,323,388.77,405.52,388.77a167.92,167.92,0,0,1,110.64,41.8l7.73,6.84,11.24-.42,5.4.39c56.64,0,105.35,41.24,115.77,97.19l3.8,21.85h16.67c1.9,0,4.13-.46,6.62-.46,46.64,0,86,39,86,86.67,0,48.74-39.38,89.89-86,89.89Zm17.72-227C679.85,436,615.71,387.08,541.88,386.49a218.22,218.22,0,0,0-136.4-48c-100.27,0-188,69.8-211.9,165.42C128.13,513.55,75.92,573.2,75.92,642.71c0,76,62.4,140.14,136.3,140.14H683.41c73.9,0,136.34-64.2,136.34-140.2,0-70.13-51.79-128.24-118.62-137.09Z" transform="translate(-75.92 152.74)"/><path class="cls-1" d="M543.36,229.38a25.15,25.15,0,0,0,25.15-25.15V137.14a25.16,25.16,0,1,0-50.31,0v67.09A25.16,25.16,0,0,0,543.36,229.38Z" transform="translate(-75.92 152.74)"/><path class="cls-3" d="M679.72,277.53a25,25,0,0,0,17.79-7.37l45.2-45.23a25.16,25.16,0,0,0-35.57-35.58l-45.2,45.24a25.16,25.16,0,0,0,17.78,42.94Z" transform="translate(-75.92 152.74)"/><path class="cls-1" d="M702.68,388.71a25.17,25.17,0,0,0,25.16,25.16h67.09a25.16,25.16,0,0,0,0-50.32H727.84A25.17,25.17,0,0,0,702.68,388.71Z" transform="translate(-75.92 152.74)"/><path class="cls-3" d="M414.39,270.16A25.16,25.16,0,0,0,450,234.59l-45.24-45.24a25.16,25.16,0,0,0-35.57,35.58Z" transform="translate(-75.92 152.74)"/><path class="cls-2" d="M317.81,503.32c3.21,0,3.22-5,0-5s-3.23,5,0,5Z" transform="translate(-75.92 152.74)"/><path class="cls-2" d="M353.81,572.33c3.22,0,3.22-5,0-5s-3.22,5,0,5Z" transform="translate(-75.92 152.74)"/><path class="cls-2" d="M302.8,494.32c3.22,0,3.23-5,0-5s-3.22,5,0,5Z" transform="translate(-75.92 152.74)"/><path class="cls-2" d="M371.81,557.33c3.22,0,3.22-5,0-5s-3.22,5,0,5Z" transform="translate(-75.92 152.74)"/><path class="cls-1" d="M398.81,497.32c3.22,0,3.23-5,0-5s-3.22,5,0,5Z" transform="translate(-75.92 152.74)"/><path class="cls-1" d="M398.81,497.32c3.22,0,3.23-5,0-5s-3.22,5,0,5Z" transform="translate(-75.92 152.74)"/><path class="cls-1" d="M398.81,497.32c3.22,0,3.23-5,0-5s-3.22,5,0,5Z" transform="translate(-75.92 152.74)"/><path class="cls-1" d="M398.81,497.32c3.22,0,3.23-5,0-5s-3.22,5,0,5Z" transform="translate(-75.92 152.74)"/><path class="cls-1" d="M428.82-147.74c3.21,0,3.22-5,0-5s-3.23,5,0,5Z" transform="translate(-75.92 152.74)"/></svg>